<svg class="sig" width="1177.55" height="272.85mm" fill="none" viewBox="0 0 311.56 272.85" xml:space="preserve" xmlns="http://www.w3.org/2000/svg">
  <path class="m" d="M282.86 214.9c-1.21-.458-2.494-1.33-4.46-3.034-1.683-1.459-2.749-3.035-3.048-4.51-.165-.813-2.864-7.956-5.198-13.758-5.129-12.748-6.819-17.462-6.26-17.462.07 0 .582 1.16 1.135 2.58 2.485 6.374 5.595 13.975 7.008 17.131.847 1.892 1.906 4.512 2.353 5.821.447 1.31.988 2.51 1.202 2.667.362.264.772 1.5 1.136 3.418.197 1.043 3.856 4.65 5.706 5.625 1.25.66 1.63.725 4.154.72 2.267-.005 3.006-.11 4.016-.572 1.67-.764 3.562-2.56 4.363-4.14.764-1.507 1.523-4.829 1.245-5.444-.105-.232-.268-1.434-.363-2.67-.152-1.982-.335-2.587-1.542-5.093-.753-1.564-1.369-2.915-1.369-3.001s-.232-.453-.517-.815c-.284-.361-.991-1.868-1.571-3.349-.58-1.48-1.407-3.465-1.837-4.411-.43-.946-.925-2.253-1.1-2.904s-.887-2.377-1.583-3.836c-.695-1.46-2.304-5.153-3.576-8.21s-4.131-9.842-6.353-15.08a1887.578 1887.578 0 0 1-5.673-13.494c-.898-2.183-2.207-5.22-2.91-6.747-.703-1.528-2.533-5.814-4.067-9.525s-3.166-7.58-3.628-8.6c-.93-2.054-8.432-19.886-10.936-25.994-.343-.837-1.727-4.081-3.077-7.21s-3.018-7.058-3.707-8.731c-2.785-6.765-3.495-8.358-3.953-8.864-.263-.29-.523-.675-.578-.855-.155-.507-3.904-3.41-5.526-4.28-3.531-1.892-8.28-2.624-11.957-1.843-2.1.447-5.862 2.153-7.453 3.38-1.125.868-1.625 1.085-2.498 1.085-.788 0-1.055-.096-.96-.345.16-.415 1.572-1.286 1.769-1.09.076.077.864-.33 1.75-.902 4.679-3.024 11.47-4.095 16.13-2.543 2.388.795 6.722 2.86 7.192 3.426.489.59.853.478.647-.2-.123-.403.026-.295.461.335.353.511.962 1.25 1.354 1.641.391.392.71.866.71 1.055-.004.406.876 2.64 3.988 10.132 1.27 3.056 3.225 7.818 4.346 10.583 1.12 2.765 2.63 6.396 3.355 8.07.725 1.673 1.418 3.28 1.54 3.571.122.292.993 2.256 1.936 4.366.942 2.11 4.12 9.611 7.061 16.67 5.51 13.221 6.102 14.626 13.035 30.955 5.058 11.913 7.305 17.288 7.78 18.612.202.56.605 1.486.898 2.06.293.573.872 1.961 1.288 3.084.416 1.123 1.37 3.47 2.12 5.216a529.42 529.42 0 0 1 1.582 3.705c.119.29.703 1.6 1.298 2.91 1.282 2.822 4.543 10.657 4.543 10.914 0 .099.482 1.107 1.072 2.24 1.286 2.472 1.676 4.254 1.675 7.653 0 2.346-.07 2.693-.865 4.308-1.067 2.166-2.953 4.094-4.978 5.086-1.374.674-1.84.758-4.445.803-1.923.033-3.233-.071-3.86-.309zm-266.51-6.5c-1.344-.336-3.47-1.413-4.502-2.281-1.271-1.07-2.214-2.5-2.959-4.487-.374-1-.784-1.924-.911-2.054-.35-.36-.021-1.677.931-3.732 1.114-2.402 2.655-7.016 8.35-25.003.76-2.4 2.248-7.044 3.306-10.319a3039.47 3039.47 0 0 0 5.135-16.14c1.766-5.602 4.572-14.473 6.237-19.71s3.433-10.895 3.931-12.569c.498-1.673 2.406-7.686 4.242-13.36 3.476-10.75 6.61-20.47 9.002-27.915.771-2.4 2.557-8.056 3.967-12.568a7364.433 7364.433 0 0 1 7.59-24.132c.563-1.776 1.024-3.422 1.024-3.656 0-.762 3.412-5.345 5.198-6.982 1.939-1.776 6.168-4.023 8.428-4.478 4.353-.877 4.527-.893 6.496-.587 5.05.783 7.966 1.99 9.223 3.817.44.639.968 1.227 1.174 1.306.206.079.717.624 1.134 1.21.417.588 3.092 4.258 5.944 8.157s6.288 8.637 7.638 10.529 3.258 4.392 4.24 5.556c1.974 2.336 4.412 5.558 9.792 12.94 1.964 2.694 3.789 4.974 4.054 5.066.266.092.702.678.97 1.303s2.849 4.28 5.735 8.122c9.945 13.237 15.576 20.694 18.932 25.068 3.54 4.614 5.033 6.857 5.318 7.992.115.459.778 1.09 2.018 1.923 2.403 1.612 4.205 2.422 6.927 3.113 2.035.516 2.476.539 5.411.28 2.307-.203 3.653-.467 4.836-.948 3.414-1.387 7.576-4.778 7.275-5.927-.094-.358.021-.56.372-.651.28-.073.807-.655 1.172-1.293.365-.638 3.319-5.685 6.564-11.215 5.8-9.884 7.064-12.312 7.252-13.932.053-.448.243-.906.423-1.018.18-.111.373-.722.426-1.357.054-.635.248-1.204.43-1.264.69-.227 2.583-2.57 2.74-3.387.183-.958 2.645-5.103 3.031-5.103.138 0 .254.268.258.595.005.46.22.265.945-.86.516-.8 1.317-2.17 1.78-3.043l.84-1.587.083 1.006c.069.832-.145 1.361-1.238 3.064-.726 1.132-1.995 3.299-2.82 4.815-.825 1.516-1.994 3.389-2.599 4.162-1.287 1.646-1.328 1.71-1.937 3.092-.257.583-.69 1.297-.962 1.588s-1.146 1.885-1.942 3.542c-.797 1.657-1.666 3.205-1.933 3.44-.267.234-1.509 2.175-2.76 4.312s-2.403 3.964-2.557 4.06c-.155.095-.57.826-.922 1.623-.353.798-1.228 2.424-1.945 3.614-1.462 2.427-2.308 4.188-2.537 5.28-.085.404-.455.997-.823 1.317-.368.32-1.153 1.209-1.745 1.976-.592.767-1.282 1.395-1.534 1.395-.251 0-.921.332-1.489.737-1.531 1.093-3.95 2.09-6.607 2.726-3.637.87-7.814.39-11.582-1.327-.706-.322-1.44-.525-1.631-.452-.191.074-.989-.483-1.772-1.238a61.35 61.35 0 0 0-2.437-2.224c-.765-.643-.977-.99-.866-1.415.094-.361-.149-1.048-.683-1.925-.843-1.385-10.196-13.98-14.375-19.356-1.456-1.874-20.048-26.883-22.324-30.03-1.21-1.674-2.89-3.888-3.732-4.92a66.707 66.707 0 0 1-2.782-3.704c-.688-1.005-3.707-5.102-6.71-9.104s-6.631-8.883-8.066-10.848c-3.061-4.193-4.04-5.291-4.715-5.291-.352 0-.452-.135-.347-.466.394-1.24-4.016-3.608-7.54-4.05-4.191-.526-8.903.403-12.336 2.432-1.776 1.049-4.865 4.016-5.51 5.292-.25.491-.697 1.16-.996 1.487s-.463.674-.365.772c.098.098.001.374-.215.612-.432.478-3.678 10.047-5.52 16.278a179.032 179.032 0 0 1-2.536 7.782c-.75 2.097-1.582 4.598-1.852 5.556-.269.96-.734 2.458-1.034 3.331-.475 1.386-1.51 4.64-4.546 14.288-1.865 5.928-2.94 9.624-2.893 9.957.123.892-.05 1.567-.516 2.005-.393.37-5.342 15.101-6.782 20.185-.103.364-.587 1.382-1.075 2.263-.566 1.022-.975 2.22-1.13 3.308-.236 1.654-3.727 13.205-4.395 14.538-.182.363-.414 1.116-.515 1.673-.1.557-.64 2.402-1.2 4.101-.558 1.699-2.11 6.542-3.448 10.762s-3.072 9.637-3.854 12.039c-1.357 4.17-5.708 18.083-8.025 25.665-.6 1.964-1.211 4.219-1.356 5.01-.146.79-.489 1.815-.762 2.279-.274.463-.824 2.138-1.224 3.722s-.827 3.007-.95 3.164c-.126.16-.092.414.078.584.225.225.147.426-.306.792l-.607.492.896 1.817c1.218 2.472 3.11 4.375 5.129 5.158 2.154.837 5.047.865 6.812.069 1.346-.608 1.494-.935.845-1.862-.513-.732-.277-.752.613-.052l.682.536.735-.704c.893-.856 2.387-3.676 2.998-5.66.247-.8.551-1.693.676-1.984.125-.29.347-.946.493-1.455 1.603-5.593 11.868-36.786 12.229-37.161.133-.138.242-.564.242-.946 0-.748 1.048-4.025 1.616-5.053.19-.346.315-.786.276-.978-.106-.52 1.207-4.294 1.812-5.207.48-.724.526-.742.527-.21.002.71-6.462 20.684-7.17 22.154-.275.573-.5 1.304-.5 1.625 0 .734-.996 4.034-1.43 4.741-.18.291-.48 1.244-.67 2.117-.19.873-.795 2.897-1.344 4.498-.549 1.6-1.621 4.875-2.383 7.276-.762 2.4-1.475 4.484-1.586 4.63-.111.145-.466 1.336-.79 2.646-.97 3.927-1.87 6.59-2.372 7.011-.26.218-.544.695-.632 1.058-.088.364-.612 1.255-1.165 1.98-.813 1.066-1.36 1.467-2.85 2.089-2.027.846-4.557 1.118-6.31.68zM199.69 79.27c.472-.913.343-1.284-.27-.774-.363.3-.588 1.593-.279 1.593.07 0 .316-.369.549-.819zm61.304 90.553c-.173-.107-1.697-3.583-3.386-7.724-3.191-7.824-16.238-40.728-18.202-45.906-.169-.443-.514-1.124-.769-1.512s-.463-.836-.463-.994c0-.158-.193-.66-.43-1.117-.332-.643-.361-.939-.13-1.31.247-.394.218-.48-.165-.482-.336-.002-.673-.556-1.208-1.985-.409-1.09-.663-2.112-.564-2.271.098-.16-.055-.606-.34-.992-.285-.386-.67-1.179-.854-1.76-.184-.583-.85-2.31-1.481-3.837-3.318-8.042-4.981-12.424-4.789-12.617.117-.117 3.618 8.142 5.902 13.92 1 2.53 1.985 4.608 2.328 4.914.35.31.782 1.235 1.048 2.242.654 2.47 9.314 24.929 11.531 29.905.421.946 1.126 2.7 1.566 3.898.737 2.01 1.423 3.714 3.33 8.273.397.945 1.29 3.208 1.985 5.027.696 1.819 2.232 5.795 3.415 8.836s2.114 5.565 2.07 5.608-.22-.009-.393-.116zm-95.581-21.63c-1.56-.433-2.695-.95-3.704-1.688a28.313 28.313 0 0 0-2.924-1.836c-1.12-.588-1.71-1.137-2.485-2.315-.559-.849-2.074-2.973-3.366-4.719-4.592-6.202-7.02-9.539-7.706-10.583-.76-1.16-1.31-1.92-5.59-7.724-1.588-2.155-3.561-4.87-4.385-6.034s-3.352-4.698-5.62-7.853c-2.27-3.156-4.203-5.983-4.299-6.284-.095-.301-.269-.548-.386-.548-.206 0-4.118-5.231-7.18-9.603-4.208-6.009-5.047-7.321-4.963-7.762.068-.353.36-.104 1.133.97.573.796 2.07 2.816 3.325 4.49 1.255 1.673 3.761 5.185 5.568 7.804s4.954 7.038 6.993 9.82 4.6 6.39 5.691 8.021 2.264 3.226 2.605 3.543c.341.317.925 1.094 1.297 1.726.371.633 1.2 1.764 1.842 2.514.64.75 1.897 2.435 2.791 3.745.894 1.31 3.819 5.296 6.499 8.86s5.282 7.117 5.782 7.9c.5.782 1.141 1.482 1.424 1.556.283.074.514.292.514.485 0 .451 2.656 2.493 4.366 3.357 2.68 1.354 4.792 1.836 7.937 1.81 1.601-.013 3.624-.172 4.497-.354 1.416-.295 1.634-.43 2.038-1.257.366-.75.454-.816.464-.346.012.565.04.57 1.137.194 1.5-.514 4.374-2.7 5.575-4.24.533-.685 1.238-1.378 1.567-1.54.38-.187.765-.8 1.058-1.679.254-.762 1.236-2.528 2.183-3.925.947-1.396 1.722-2.648 1.722-2.782s1.03-1.937 2.289-4.008c2.454-4.038 3.815-6.329 8.679-14.614 1.708-2.91 3.511-5.965 4.007-6.787s.9-1.627.9-1.79c0-.162.349-.62.775-1.018.705-.659 5.65-8.777 9.786-16.07a452.84 452.84 0 0 1 2.976-5.16c3.241-5.504 3.196-5.34 1.9-6.88-.449-.533-.547-.792-.3-.792.202 0 .51.143.685.317.175.175.318.2.318.055s.67-.28 1.488-.298l1.488-.035-1.715 1.769 1.906 4.805c1.048 2.643 1.855 4.857 1.793 4.919-.063.062-.86-1.728-1.771-3.977-1.598-3.944-2.224-5.189-2.467-4.91-.063.073-.972 1.718-2.02 3.656s-3.566 6.27-5.596 9.625c-2.03 3.356-3.69 6.196-3.69 6.311 0 .116-.506.966-1.124 1.89-1.496 2.234-2.278 3.975-1.85 4.118.407.135-.05 1.089-.762 1.595-.387.274-.428.47-.214 1.031.232.611.214.652-.149.351-.226-.188-.443-.295-.482-.238-1.734 2.566-4.765 7.483-8.137 13.201-2.36 4.002-5.122 8.646-6.138 10.32-1.017 1.673-2.03 3.4-2.254 3.836-1.246 2.441-3.892 6.912-4.999 8.447-.996 1.382-1.825 2.136-3.789 3.445-3.795 2.53-5.409 3.253-7.965 3.574-3.453.433-6.413.297-8.968-.411zm-120.12-3.26c0-.5 1.472-5.161 4.878-15.448 3.08-9.303 3.53-10.873 3.251-11.347-.258-.437-.255-.573.014-.67.186-.068.557-.558.824-1.09.62-1.235 6.96-21.06 7.056-22.065.024-.252.168-.609.319-.793s.413-.872.581-1.526 1.429-4.66 2.801-8.898c2.298-7.095 3.112-9.952 3.477-12.194.076-.468.326-1.003.557-1.19.362-.295.39-.27.209.189-.45 1.135-.712 2.226-1.21 5.03-.44 2.476-5.305 18.848-7.548 25.397-1.898 5.541-5.732 17.184-6.187 18.785-.29 1.018-1.2 3.995-2.024 6.614a708.078 708.078 0 0 0-1.972 6.35c-1.239 4.15-4.38 12.832-4.684 12.95-.188.072-.342.029-.342-.096zm63.448-68.993c-.387-.102-2.413-2.658-4.43-5.59-.511-.743-1.687-3.491-1.493-3.491.035 0 .461.565.947 1.257 1.422 2.026 4.258 5.937 5.084 7.011.42.546.668.978.552.962s-.413-.084-.66-.15zm-39.352-6.742c-.01-.096 2.285-7.143 5.101-15.66 4.647-14.051 5.082-15.522 4.706-15.898-.376-.376-.337-.415.414-.415.652 0 1.009-.228 1.676-1.07.958-1.21 1.406-1.233.549-.028-.307.43-.558 1.133-.558 1.561 0 .817 1.44 3.27 3.139 5.342.529.646 1.2 1.553 1.49 2.016.292.463 1.562 2.137 2.824 3.72 4 5.022 8.014 10.2 8.33 10.75.644 1.118 3.696 4.663 4.36 5.063.382.232.749.699.814 1.038.223 1.168-3.028-2.385-7.095-7.754-2.15-2.837-4.63-6.063-5.512-7.168-.882-1.104-3.33-4.344-5.44-7.2-2.11-2.855-3.915-5.195-4.01-5.2-.223-.014-.265.107-5.373 15.6-3.797 11.515-5.35 15.905-5.415 15.302z" stroke="#000" stroke-width="2" stroke-miterlimit="10" stroke-linecap="round" stroke-linejoin="round"/>
  <path class="others" d="M219.91 263.98c-.077-.293-.36-.53-.637-.53-.845 0-.556-.74.362-.924.473-.095 1.097-.24 1.387-.324.463-.132.483-.098.166.285-.199.239-.525.435-.726.435-.49 0-.466.771.031.962.218.083.33.258.25.388-.254.41-.69.258-.833-.292zm3.363-1.603c0-.154.119-.207.264-.117.146.09.265.216.265.28 0 .065-.119.117-.265.117s-.264-.126-.264-.28zm-4.763-.819c0-.462.066-.499.397-.224.219.181.397.362.397.401 0 .04-.178.14-.397.224-.275.105-.397-.018-.397-.4zm-.793-1.826c0-.338-3.286-6.46-4.6-8.573a23.63 23.63 0 0 1-1.432-2.778c-.997-2.38-.98-2.315-.447-1.813.447.421.504.41.982-.199.615-.782 1.149-.824 1.525-.122.397.742.046 1.85-.693 2.186-.815.372-.79.69.152 1.99.429.592 1.2 1.914 1.716 2.938a79.744 79.744 0 0 0 2.132 3.88c1.265 2.14 1.349 2.379.93 2.638-.146.09-.265.024-.265-.147zm-4.59-12.3c.215-.558-.143-.86-.448-.378-.324.512-.317.786.019.786.15 0 .343-.183.43-.408zm77.896.74a58.603 58.603 0 0 0-1.519-3.72c-.483-1.063-.88-2.059-.88-2.213 0-.28-4.792-12.308-6.887-17.285-1.703-4.046-5.006-12.669-4.895-12.78.238-.238 1.067 1.48 1.986 4.112a172.06 172.06 0 0 0 1.664 4.567c.99 2.538 2.35 5.893 2.584 6.37.729 1.488 3.168 7.418 3.168 7.703 0 .19.37 1.12.823 2.066.744 1.553 2.502 6.144 4.026 10.511.316.906.72 1.65.897 1.654.323.006.17.8-.155.8-.095 0-.46-.804-.812-1.786zm-93.592-2.195c0-.43.1-.782.22-.782.122 0 .221.29.221.645 0 .356-.099.708-.22.783-.121.075-.22-.216-.22-.646zm1.256.122c.013-.309.075-.371.16-.16.076.19.067.419-.021.507-.088.088-.15-.069-.139-.347zm2.315-.57c-.355-.08-1.337-1.528-2.812-4.146-.074-.131.003-.154.17-.05.469.289.401.087-.985-2.959a265.39 265.39 0 0 1-1.881-4.217c-.325-.76-.726-1.49-.892-1.625-.46-.372-3.609-.673-3.609-.345 0 .15.715 1.172 1.588 2.27.873 1.1 1.587 2.081 1.587 2.182s-.828-.7-1.84-1.781l-1.839-1.967-.02 2.646c-.016 2.035-.087 2.532-.308 2.153-.174-.3-.244-1.471-.178-2.977.092-2.111.047-2.483-.3-2.48-.226 0-1.661.286-3.19.633-4.24.961-8.221 1.303-15.475 1.327-5.651.018-7.159-.065-10.346-.574-5.79-.924-13.11-3.211-18.618-5.817-4.097-1.937-8.554-4.594-8.238-4.91.19-.191.854.109 2.164.98 4.948 3.29 12.878 6.65 19.03 8.062 2.929.673 8.17 1.528 11.543 1.885 2.79.294 12.943-.044 15.247-.509 4.36-.88 6.479-1.465 6.991-1.933.317-.289.704-.446.86-.35.192.119.284-.39.284-1.56 0-.98.115-1.735.265-1.735.148 0 .264.735.264 1.676 0 .921.066 1.741.146 1.821.08.08.628-.087 1.216-.371 1.214-.587 1.59-.464.904.295-.451.499-.436.52.5.695.53.1 1.034.11 1.121.023.087-.087-.222-1.008-.686-2.047s-.783-1.952-.706-2.029c.076-.076.22.087.32.362.677 1.864 1.459 3.293 1.992 3.643.343.224 1.872.64 3.398.923 1.527.284 2.359.522 1.85.53-.51.009-1.76-.148-2.779-.348s-1.957-.262-2.086-.14c-.133.128.753 2.476 2.063 5.467 1.65 3.764 2.562 5.514 3.235 6.205.918.941.934 1.295.05 1.093zm14.13-.599c-.183-.291-.517-.53-.743-.53-.291 0-.388-.206-.329-.7.116-.97.796-1.355 1.62-.915.503.27 1.038.284 2.451.064.994-.155 1.86-.23 1.925-.165.168.168-.39.344-2.34.74-1.714.346-1.72.35-1.637 1.191.096.978-.426 1.151-.948.315zm-.062-1.588c0-.145-.053-.264-.117-.264s-.19.119-.28.264c-.09.146-.037.265.117.265s.28-.119.28-.265zm-3.779 1.425c-.272-.272-.235-1.425.046-1.425.13 0 .292.15.36.331.166.442-.165 1.335-.406 1.094zm21.506-2.596c0-.208-.297-.612-.661-.898-.549-.431-.59-.547-.243-.68.89-.342 1.106-.17 1.121.897.008.582-.037 1.059-.101 1.059s-.116-.17-.116-.378zm-7.474-.49c2.513-.458 2.976-.618 2.976-1.028 0-.796 1.277-.641 1.594.193.366.963.32 1.438-.138 1.438a.398.398 0 0 1-.397-.397c0-.475.216-.475-3.043-.003-3.843.557-4.46.431-.992-.202zm10.25-.192c-.09-.147.095-.63.411-1.074.557-.783.56-.82.083-1.18-.462-.35-.447-.374.235-.382.932-.01.948.533.05 1.709l-.676.888.61.116c.594.114.595.118.032.153-.319.02-.654-.084-.744-.23zm2.677-.858c.232-1.34.322-1.522.756-1.522.546 0 .539 1.417-.01 1.966-.649.648-.908.493-.746-.445zm-41.816-1.191c-.572-.73-.617-.854-.174-.466.53.463 1.23 1.458 1.026 1.458-.042 0-.425-.446-.852-.992zm114.44-.29c-.432-.808-.342-1.033.138-.347.233.333.362.667.286.743-.076.076-.266-.103-.424-.397zm-116-1.276a.729.729 0 0 1-.176-.45c0-.165.123-.15.313.04.172.173.252.375.176.45-.075.075-.216.057-.313-.04zm114.81-1.366c-.72-1.394-4.696-11.203-4.585-11.314.108-.108.301.313 2.321 5.052.62 1.455 1.54 3.576 2.041 4.714.888 2.01 1.052 3.151.223 1.548zm-97.476-1.98c-.773-.823-.728-.977.285-.967.748.007.803.052.422.342-.32.242-.37.457-.186.785.35.624.161.566-.52-.16zm-7.057-.309a97.577 97.577 0 0 0-2.607-.52c-.56-.099-.955-.244-.877-.322.2-.2 5.548.71 5.852.997.333.314-.394.267-2.368-.155zm9.343-.847c.19-.076.419-.067.507.021.088.088-.068.15-.347.14-.309-.014-.371-.076-.16-.16zm2.102-.348c-.106-.364-.191-.9-.189-1.19.004-.492.024-.496.278-.06.15.258.235.794.189 1.19l-.085.721zm-30.581-3.523c-.744-.792-.726-1.447.067-2.43.488-.605.715-.721.954-.488.24.235.178.378-.261.613-.68.364-.66 1.516.031 1.95.718.449 1.362-.274 1.19-1.335-.107-.655-.045-.873.247-.873.878 0 .772 1.716-.164 2.653-.69.69-1.36.66-2.064-.09zm60.48-1.24c-.108-.8-.199-4.312-.202-7.805-.003-3.492-.082-6.633-.174-6.978l-.168-.628-7.832.18c-4.924.112-8.152.082-8.692-.082-.81-.245-.86-.222-.86.401 0 .535-.114.645-.595.577-.479-.068-.612-.28-.678-1.077-.07-.843-.003-.992.448-.992.29 0 .61.13.708.29.098.159.64.245 1.206.19.565-.053 1.028-.005 1.028.108 0 .251 3.167.26 10.253.03l5.357-.173.11-10.102.158 5.027c.087 2.765.182 5.057.21 5.094.028.036 1.45.086 3.16.11l3.11.046-2.911.186c-1.6.102-2.998.2-3.105.22-.107.018-.226 3.813-.265 8.433-.042 5.093-.147 7.828-.266 6.946zm-56.355-1.587c-.107-.364-.197-1.888-.199-3.387-.003-1.919-.123-2.956-.407-3.506-.364-.703-.363-.78.009-.78.352 0 .402-.399.338-2.712l-.076-2.712-2.117.002c-1.164 0-3.454.06-5.09.132-1.892.083-2.975.034-2.977-.134-.002-.165 1.882-.292 4.99-.336l4.991-.072.168-1.222c.092-.672.167-4.142.167-7.711s.09-6.4.199-6.29c.109.11.198 3.552.198 7.65v7.452l2.91.31-3.076.087.189 4.137c.178 3.891.242 4.263 1.082 6.255 1.068 2.53 1.013 3.014-.074.66l-.766-1.66-.132 2.25c-.092 1.553-.193 2.044-.328 1.587zm-3.26-1.084c-.1-.16-.027-.575.16-.923.287-.538.272-.708-.102-1.12-.608-.672-.553-1.02.244-1.543.828-.542 1.063-.289 1.323 1.43.124.821.053 1.302-.263 1.785-.455.695-1.06.86-1.363.371zm.941-2.885c0-.146-.053-.265-.117-.265s-.19.12-.28.265c-.09.145-.037.265.117.265s.28-.12.28-.265zm116.85 1.71c-.255-.666-.18-.837.132-.301.154.265.225.539.157.607-.068.068-.198-.07-.289-.306zm-285.65-.448c0-.657 4.572-14.37 4.912-14.731.226-.24.156.229-.198 1.323-.302.932-1.2 3.779-1.995 6.326-.796 2.546-1.643 5.255-1.884 6.018-.405 1.285-.835 1.832-.835 1.064zm283.65-4.052c-.463-1.113-.788-2.078-.722-2.144.066-.066.5.79.962 1.903.464 1.113.789 2.078.723 2.144-.066.066-.5-.79-.963-1.903zm-301.37-1.906c.001-.403 4.47-14.01 5.261-16.023.161-.41.4-.677.533-.595.132.081-.154 1.19-.636 2.463-.862 2.276-4.173 12.467-4.514 13.89-.192.806-.646.992-.644.265zm247.39.07c-.637-.768.333-2.782 1.34-2.782.589 0 .923 1.343.52 2.095-.248.465-1.055 1.08-1.416 1.08-.065 0-.265-.177-.444-.394zm1.31-.913c.385-.718.341-1.34-.094-1.34-.404 0-.69.556-.69 1.344 0 .655.433.653.785-.004zm1.763.036c-.243-.392.08-2.17.393-2.17.281 0 .28 1.247-.002 1.967-.135.346-.262.411-.39.203zm49.726-.24c-.144-.377-.114-.408.148-.148.18.18.262.393.18.474-.081.082-.229-.065-.328-.326zm-47.862.01c-.25-.248-.212-1.474.057-1.899.186-.293.37-.28 1.054.073.893.462.98.697.555 1.49-.263.493-1.3.702-1.666.336zm1.086-.832c.057-.173-.084-.314-.315-.314a.42.42 0 0 0-.419.419c0 .467.57.386.734-.105zm45.203-2.99c-.543-1.326-.935-2.462-.872-2.525.063-.063.551.977 1.085 2.31.534 1.335.926 2.47.872 2.525-.055.055-.543-.985-1.085-2.31zm-91.444.295c0-.953.066-1.059.661-1.059.452 0 .663.147.665.463.002.255.076.731.163 1.059.14.524.061.595-.665.595-.785 0-.824-.05-.824-1.058zm13.494.415c0-.208-.193-.57-.429-.806-.512-.513-.485-.544.67-.764.879-.168.89-.159.439.34-.296.327-.4.71-.29 1.06.102.32.057.548-.108.548-.155 0-.282-.17-.282-.378zm49.617-.837c-.306-.467-.613-.644-.957-.554-.753.197-.613-.17.262-.687.846-.5 1.877-.604 1.877-.19a.27.27 0 0 1-.273.265c-.514 0-.585.814-.115 1.333.399.44.408.52.063.52-.224 0-.61-.31-.857-.687zm-75.076.227a13.218 13.218 0 0 1 2.116.002c.542.057.033.103-1.131.102-1.164 0-1.608-.047-.985-.103zm6.541-.07c1.206-.307 4.895-.307 4.895 0 0 .162-1.104.252-2.845.233-1.88-.02-2.575-.1-2.05-.233zm54.24-.53c-2.936-.122-3.265-.17-1.588-.225 1.165-.04 3.01-.165 4.101-.28 1.092-.115 2.069-.163 2.172-.108.348.19-.109.879-.546.824-.24-.03-2.102-.125-4.139-.21zm-45.595-.808-.615-.779h.653c.63 0 .974.428.974 1.213 0 .57-.332.428-1.012-.434zm11.757-.194c.127-.637.06-.825-.331-.926-.416-.107-.402-.131.086-.157.443-.024.598.139.662.697.127 1.106.837.922 1.03-.268.21-1.294.585-1.663.467-.46-.066.676.016.936.306.962.219.02.57.05.78.066.865.069-.205.525-1.64.7l-1.52.185zm51.433.231c0-.133.149-.296.33-.36.183-.066.243-.214.135-.33-.109-.116-.414-.015-.679.225-.894.81-1.534-.493-.667-1.36.321-.32.471-.352.551-.113.06.18.333.329.607.329.655 0 1.08.797.746 1.395-.267.477-1.023.635-1.023.214zm-90.818-.578c.393-.409.445-1.825.066-1.825-.145 0-.274.208-.285.463-.014.3-.07.342-.16.117-.129-.323.598-1.374.95-1.374.086 0 .151.625.145 1.388-.01 1.164-.096 1.403-.53 1.48-.418.076-.453.028-.186-.25zm30.229-.348c0-.376-.143-.683-.318-.683-.246 0-.246-.071 0-.318.206-.205.409-.227.575-.06.395.395.445 1.496.074 1.627-.21.075-.331-.133-.331-.566zm1.603-.463c-.3-.322-.545-.686-.545-.809 0-.285.87.174 1.292.683.54.652-.148.768-.747.126zm61.441-1.08c-.552-.714-.632-.987-.246-.84.387.15 5.925-1.268 7.515-1.922.473-.195.862-.502.866-.681.003-.18.23-.62.504-.976.425-.554.56-.597.92-.298.575.477.53.72-.173.933-.377.115-.47.233-.255.321.299.123 6.595-1.646 8.192-2.301.46-.188.595-.155.595.147a.39.39 0 0 1-.384.391c-1.176 0-15.595 4.519-16.427 5.148-.642.485-.784.495-1.107.078zm20.472-1.32c-.386-.911-.696-1.835-.687-2.054.01-.218.365.489.79 1.57.946 2.408.869 2.773-.103.484zm-270.32.328c-.106-1.03-.203-1.188-.718-1.17-.627.022-.83-.375-.265-.518.182-.047.718-.211 1.19-.366.904-.296 1.126-.084.478.455-.211.175-.424.874-.473 1.554l-.089 1.235zm156.82-.463c-.34-.552-1.272-3.29-1.158-3.404.07-.069.443.669.832 1.638.388.97.653 1.817.588 1.881-.065.065-.182.013-.262-.115zm1.062.022c-.277-.277-.206-1.412.088-1.412.145 0 .264.358.264.794 0 .822-.053.916-.352.618zm-154.66-.372c-.554-.222-.604-.362-.44-1.24.22-1.178.32-1.311.696-.935.203.203.202.44-.004.825-.385.718-.375.756.24.916.29.076.529.269.529.428 0 .341-.181.342-1.021.006zm178.37-.834c-.018-1.466-.884-12.744-.986-12.847-.043-.043-1.6.045-3.459.196-4.073.331-4.626.338-4.626.06 0-.229 6.353-.616 20.373-1.241 15.127-.675 15.512-.686 14.95-.415-.292.14-2.177.333-4.19.43l-3.658.174.187 4.404c.102 2.422.242 5.092.31 5.933.127 1.56-.05 2.536-.395 2.19-.106-.105-.311-2.95-.457-6.321l-.264-6.13-1.191.059c-.655.032-4.643.195-8.863.36-4.22.167-7.732.358-7.804.426-.465.435.119 9.192.733 10.994.308.905.357 1.452.177 1.963-.403 1.14-.822 1.023-.837-.234zm-22.366.437c-.11-.11-.195-.569-.19-1.017.006-.691.05-.744.281-.346.303.52.225 1.684-.091 1.363zm96.634-2.112c-.19-.498-.17-.895.07-1.396.454-.946 1.126-1.021 1.673-.187.425.649.422.713-.047 1.232-.929 1.026-1.402 1.125-1.696.351zm1.293-.738c.162-.195.218-.432.123-.527-.199-.198-.882.305-.882.65 0 .348.425.28.76-.123zm-8.82.014c-.404-2.507 1.036-5.259 3.863-7.382 3.008-2.261 4.936-2.793 8.383-2.313 1.681.234 2.55.518 3.688 1.203.819.492 1.567.896 1.662.896.235 0 1.165 2.088 1.003 2.25-.07.07-.893-.466-1.827-1.191-.935-.726-1.878-1.32-2.096-1.323-.219-.002-.754-.24-1.191-.53-.633-.42-1.243-.526-3.015-.527-2.006-.002-2.412.09-4.186.943-3.255 1.565-4.935 3.775-5.72 7.522l-.36 1.72zm24.384-.224c-.4-.457-.689-.87-.64-.918.047-.048.527-.271 1.065-.496.994-.416 1.304-.207.582.392a1.033 1.033 0 0 0-.08 1.534c.175.175.202.318.06.318-.143 0-.587-.374-.987-.83zm-280.12-1.75c-1.937-2.843-2.623-3.546-3.26-3.344-.358.114-.659-.02-.968-.429l-.448-.594-2.56.563c-2.943.647-2.81.631-2.81.344 0-.121.922-.419 2.05-.661 1.128-.243 2.557-.693 3.176-1 1.357-.672 1.819-.536 2.33.686.213.511.505.93.649.93s.261.156.261.347c0 .191.83 1.441 1.843 2.778s1.683 2.43 1.488 2.43c-.195 0-.983-.922-1.751-2.05zm268.65 1.132c.085-.221-.084-.553-.39-.767-.52-.365-.523-.407-.084-1.264.491-.958.894-1.325 1.228-1.118.402.248.21.628-.318.628-.68 0-.669.362.042 1.323.473.64.513.841.232 1.18-.43.518-.907.53-.71.018zm-106.44-.735a75.953 75.953 0 0 0-.787-1.874c-.61-1.407-.684-1.734-.303-1.354.308.309 1.65 3.823 1.459 3.823-.075 0-.241-.268-.37-.595zm104.4.154c-.277-.277-.206-1.41.088-1.41.145 0 .265.356.265.793 0 .822-.054.916-.353.617zm17.198 0c-.263-.263-.214-2.259.052-2.095.126.078.228.621.228 1.207 0 1.134-.008 1.16-.28.888zm1.852-.264c-.51-.51.363-2.734 1.071-2.734.458 0 .428.258-.098.839-.41.454-.404.484.1.484.791 0 1.289.682.867 1.19-.332.401-1.614.547-1.94.22zm1.676-.76c0-.067-.239-.122-.53-.122-.299 0-.529.176-.529.406 0 .324.107.35.53.123.29-.156.529-.338.529-.406zm-10.657.32a2.91 2.91 0 0 1-.183-.927c.007-.394.038-.39.282.03.151.26.233.676.183.926-.084.416-.108.413-.282-.03zm-50.36-3.22c0-1.746.043-2.426.095-1.511s.051 2.344-.001 3.175c-.053.83-.095.082-.095-1.664zm48.603 1.565c.012-.308.075-.37.16-.16.076.191.066.42-.021.507-.088.088-.15-.068-.14-.347zM1.13 198.078c-.109-.543-.386-.9-.83-1.068-.382-.145-.565-.348-.426-.475.408-.373 1.654-.57 1.828-.29.09.147.484.281.876.3.627.029.593.066-.283.312-.948.265-.988.32-.83 1.157.09.483.088.878-.004.878-.093 0-.242-.366-.331-.814zm179.16.003c-.096-.155-.118-.339-.049-.408.07-.07.197.057.283.282.179.466.026.548-.234.126zm-176.7-1.788c-.118-.339-.143-.686-.057-.772.274-.274.467.13.367.769l-.098.618zm23.815-.973c-1.236-3.921-6.387-6.884-10.763-6.192-.733.116-1.983.509-2.777.872-1.486.68-1.831.549-.929-.353 1.223-1.223 4.904-1.818 7.652-1.237 2.228.472 3.969 1.476 5.573 3.216 1.564 1.698 2.287 3.3 1.977 4.382l-.246.857zm207.33 1.273c.254-.066.671-.066.926 0s.046.121-.463.121-.718-.054-.463-.12zm14.223-.685c-.001-.26-.18-.54-.397-.623-.57-.219-.216-.626.543-.626.76 0 .758-.01.25.962-.272.523-.395.612-.396.287zm-228.55-.518c-.857-.413-.628-1.05.407-1.131.787-.062.86-.002.86.695 0 .817-.278.912-1.267.436zm158.59-.08c-.256-.665-.18-.837.131-.3.155.265.226.538.157.606-.068.069-.198-.07-.288-.306zm72.33-.65c0-.437-.118-.795-.264-.795s-.265-.119-.265-.264c0-.623.767-.196.923.514.117.53.292.732.55.633.209-.08.38-.026.38.12 0 .259-.602.585-1.08.585-.134 0-.243-.357-.243-.794zm-232.57.131c0-.218.047-.396.105-.396s.172.178.256.396.037.397-.104.397-.256-.178-.256-.397zm235.08-.132c-.09-.145.023-.264.25-.264s.412.119.412.264-.112.265-.249.265-.322-.12-.412-.265zm-.368-1.235c-.243-.533-.21-.617.242-.617.288 0 .523.11.523.243s.065.411.144.617c.247.644-.61.415-.91-.243zm-58.432-.527c-.195-.079.192-.543.957-1.148.707-.56 1.78-1.77 2.384-2.691 1.213-1.849 2.275-4.96 2.03-5.94-.155-.615-.23-.63-3.262-.67l-3.104-.041 2.98-.184c1.64-.101 3.05-.254 3.136-.339.209-.209-.628-2.742-1.287-3.894-.29-.509-1.313-1.67-2.271-2.58l-1.742-1.653h.839c1.177 0 2.769 1.704 4.063 4.352.968 1.98 1.029 2.245 1.029 4.54 0 2.93-.56 4.953-1.955 7.053-.801 1.207-3.045 3.429-3.382 3.349a5.18 5.18 0 0 1-.415-.154zm-5.204-1.372c-.085-.138.041-.325.28-.416.584-.225.72-.037.254.35-.226.188-.442.215-.534.066zm47.815-1.701c-1.083-1.176-2.543-4.296-2.874-6.145-.252-1.409-.572-1.98-1.12-2.001-.365-.014-.347-.06.09-.237.415-.169.62-.628.86-1.932.173-.942.315-1.904.315-2.14s.616-1.381 1.368-2.548c1.26-1.954 1.438-2.122 2.25-2.122.484 0 .88.068.88.15 0 .084-.463.709-1.028 1.39-1.248 1.502-1.736 2.44-2.524 4.856l-.603 1.852.556.225c.464.187.478.227.085.241-.26.01-.537.188-.617.398-.287.747.473 3.313 1.434 4.844a84.106 84.106 0 0 1 1.267 2.069c.16.281.794.898 1.41 1.371l1.12.86h-.913c-.736 0-1.115-.22-1.956-1.131zm8.684-1.713c.03-2.395.068-2.636.241-1.522.302 1.936.295 4.366-.012 4.366-.162 0-.25-1.101-.23-2.844zm1.023 2.564c0-.154.119-.207.264-.117.146.09.265.216.265.28 0 .065-.12.117-.265.117-.145 0-.264-.126-.264-.28zm-59.34-3.34c.07-1.72.228-3.722.353-4.45.15-.869.18.13.089 2.91-.077 2.329-.236 4.332-.353 4.451-.117.12-.157-1.19-.088-2.91zm3.39 2.307c-.28-.308-.4-.703-.298-.97.213-.556.556-.224.788.762.204.865.132.896-.49.208zm57.405-.54c-.09-.145-.409-.264-.71-.264-.455 0-.49-.066-.216-.397.368-.443 1.588-.544 1.588-.132 0 .146.268.265.595.266.545.002.532.035-.163.397-.899.47-.886.468-1.094.13zm1.017-2.515c-.37-.798-.113-.857.519-.119.255.298.597.458.761.356.183-.112.225-.065.11.121-.324.524-1.07.332-1.39-.358zm2.224-.453c-.807-.278-.934-.763-.33-1.264.37-.307.516-.182.418.36-.023.126.171.384.431.574.639.467.372.637-.519.33zm-5.733-1.683c.012-.309.075-.371.16-.16.076.19.067.419-.021.507-.088.088-.15-.069-.14-.347zm-73.615-3.484c-1.877-4.188-3.497-7.475-3.684-7.475-.11 0-.263.15-.339.331-.21.504-.878-.448-1.084-1.543-.149-.795-.048-1.066.735-1.98.59-.69 1.247-2.026 1.882-3.826l.975-2.766-3.01-4.037c-4.687-6.287-5.824-7.84-7.513-10.255-2.115-3.027-2.11-3.018-1.51-2.642.27.169 1.114 1.22 1.876 2.334 3.212 4.699 9.288 12.786 9.88 13.153.154.095.342.11.418.033.18-.18 2.938-9.497 3.158-10.667.16-.854.528-1.35.8-1.078.07.07-.175 1.065-.544 2.21-3.07 9.53-3.292 10.422-2.708 10.906.33.275.616-.057 1.834-2.133 6.268-10.687 8.571-14.496 8.827-14.6.261-.105-2.344 4.49-4.409 7.776-1.28 2.036-4.75 8.141-5.225 9.193-.249.55-.696 1.356-.994 1.79s-1.112 1.943-1.81 3.35l-1.267 2.561.685 1.364c.377.75.685 1.512.685 1.692s.55 1.451 1.221 2.823c1.229 2.509 2.306 5.272 2.056 5.272-.075 0-.495-.803-.936-1.785zm-1.283-15.273c0-.198.125-.401.278-.452.181-.06.197-.316.044-.729-.278-.75-.468-.52-.732.884-.139.742-.109.976.108.842a.713.713 0 0 0 .302-.545zm19.447 16.795c.751-.323 2.316-.323 2.116 0-.09.145-.722.256-1.404.246-.937-.014-1.112-.075-.712-.246zm13.03-.456c.473-.059 1.247-.059 1.72 0s.086.107-.86.107c-.945 0-1.332-.048-.86-.107zm6.887-.003a13.218 13.218 0 0 1 2.116.002c.542.057.033.102-1.131.102-1.164-.001-1.608-.048-.985-.104zm35.397-.222c-.326-.24-1.247-.39-2.514-.412l-2-.034 1.978-.247c2.292-.287 2.65-.506 2.66-1.635.008-.692.053-.752.279-.364.149.256.234 1.05.19 1.767-.076 1.237-.105 1.283-.593.925zm-58.93-.19c.195-.236.283-.545.195-.687-.088-.142-.03-.338.13-.437.189-.117.259.076.202.557-.047.404-.265.794-.483.865-.336.11-.343.064-.043-.299zm4.166-3.22c.15-.6.064-.841-.446-1.24-.62-.487-.623-.505-.12-.89 1.005-.77 1.348-.518 1.248.917-.05.73-.263 1.454-.48 1.634-.331.275-.361.213-.202-.422zm52.857.25c-.084-.222-.005-.763.179-1.205.243-.587.481-.78.887-.723.713.103.853.854.312 1.68-.48.731-1.146.85-1.378.247zm1.375-1.394c-.227-.227-.94.514-.93.967.007.333.128.288.535-.202.29-.348.468-.692.395-.765zm3.417-.601c-.268-.434.108-1.573.519-1.573.237 0 .318.188.228.53-.096.367-.008.528.29.528.549 0 .555.424.009.634-.597.228-.849.2-1.046-.12zm-1.526-.354c-.108-.275-.135-.563-.058-.64.241-.24.453.155.352.657-.093.46-.107.46-.294-.017zm-76.753-2.96c-.235-.612.08-2.144.516-2.505 1.002-.832 2.038.697 1.39 2.054-.417.876-1.633 1.164-1.906.451zm1.381-1.285c.061-.518-.017-.702-.265-.62-.193.063-.39.446-.437.851-.061.519.017.702.264.62.193-.063.39-.446.438-.85zm3.254.027c-.2-.242-.54-.44-.756-.44-.282 0-.348-.179-.234-.632.122-.488.055-.623-.292-.595a.539.539 0 0 1-.546-.427c-.07-.338.074-.463.532-.463.345 0 .77-.143.945-.318.56-.56.88.155.795 1.778-.07 1.345-.126 1.482-.444 1.097zm14.386-2.293c-.464-.513-.462-.529.092-.529.313 0 .57.05.57.11 0 .062.072.3.16.53.225.586-.25.522-.822-.11zm3.09-.612c-.535-.568-.768-1.24-.43-1.24.562 0 1.706.892 1.706 1.33 0 .7-.572.66-1.277-.09zm2.153-.592c.129-.794.063-.978-.428-1.187-.52-.22-.497-.24.212-.184.798.062.926.36.548 1.273-.115.28.028.515.434.71.595.287.592.292-.156.31-.728.017-.756-.025-.61-.922zm52.202.46c-.106-.173-.454-.318-.773-.322-.567-.008-.568-.017-.066-.397.538-.407 1.484-.531 1.452-.19-.01.109-.109.428-.219.71-.138.352-.26.414-.394.198zm2.048-1.156c-.788-1.229-.864-1.54-.376-1.54.328 0 .534.267.648.837.186.93.069 1.233-.272.703zm-10.564-1.87c-.97-2.56-1.426-3.695-4.601-11.443-5.796-14.142-9.01-22.123-8.995-22.337.024-.353.837 1.464 2.77 6.197 1.13 2.765 3.184 7.766 4.565 11.112 1.38 3.347 2.782 6.8 3.115 7.673 1.031 2.708 2.713 6.534 3.688 8.392 1.026 1.955 1.115 2.324.559 2.324-.22 0-.671-.786-1.1-1.918zm11.978 1.222c-.317-.317-.204-1.075.212-1.42.456-.38.545.01.102.453-.304.304-.115.87.29.87.127 0 .292-.209.367-.463.107-.364.125-.35.082.063-.054.53-.71.84-1.053.497zm-58.129-.624c0-.47 4.114-8.036 5.828-10.718.837-1.31 1.889-3.14 2.337-4.066.986-2.037 2.393-4.269 2.69-4.269.203 0-1.918 3.86-5.158 9.387-1.88 3.21-4.437 7.986-4.801 8.972-.297.803-.895 1.267-.895.693zm-35.57-18.843c-.11-.395-.369-.857-.574-1.028-.426-.353-.044-1.034.581-1.034.508 0 1.002 1.015.685 1.406-.14.173-.307.552-.373.843-.102.458-.145.433-.319-.187zm-2.71-.673a55.064 55.064 0 0 0-.555-1.19c-.056-.11.354-.195.912-.19.9.007.962.047.55.36-.345.262-.42.564-.297 1.182.224 1.122-.059 1.047-.61-.162zm50.009-1.124c.354-.8 2.883-5.325 5.62-10.054 8.763-15.141 9.389-16.264 9.315-16.722-.04-.248-1.965-2.486-4.278-4.975-2.314-2.488-4.452-4.846-4.752-5.238-.3-.393.873.774 2.606 2.593 4.43 4.648 5.972 6.155 6.133 5.995.077-.077-.471-1.481-1.218-3.12-.747-1.64-1.295-3.144-1.22-3.342.244-.633.615-.105 1.216 1.726.764 2.324 2.009 5.09 2.291 5.09.338 0 3.741-5.764 4.089-6.923.24-.8.434-1.014.923-1.014.341 0 .62.106.62.235s-.94 1.647-2.09 3.374-2.043 3.187-1.986 3.246c.056.06 1.027-.462 2.155-1.16s3.892-2.387 6.14-3.757 4.23-2.608 4.405-2.752c.576-.479.07-1.283-2.081-3.306-4.47-4.204-10.101-5.87-15.71-4.645-2.173.474-4.685 1.506-6.401 2.631l-.62.406.62.477c.34.262.468.48.284.483-.226.004-.282.223-.17.667.266 1.061-.303.762-.67-.353-.299-.902-.275-1.132.212-2.088.474-.928.81-1.182 2.476-1.87 2.7-1.115 4.613-1.447 8.288-1.442 2.875.005 3.416.086 5.556.83 2.423.843 4.795 2.293 7.074 4.325 1.033.922 1.43 1.554 2.175 3.468.553 1.421.758 2.215.522 2.019-.214-.178-.39-.48-.39-.672 0-.698-.544-.648-2.173.198-2.362 1.227-11.047 6.738-11.915 7.562-.851.807-.956 1.995-.33 3.766.607 1.721.454 1.632-.412-.24-.432-.932-.84-1.64-.91-1.57-.135.135-8.303 14.328-12.766 22.182-3.012 5.3-3.629 6.233-2.628 3.97zm-27.25-.34c.091-.259.42-1.307.73-2.329.31-1.021.608-1.814.66-1.761.163.162-.985 4.016-1.28 4.297-.19.182-.224.117-.11-.207zm11.468-.52c-.099-.255-.238-.65-.31-.878-.088-.28-.305-.36-.662-.247-.623.198-.726-.265-.112-.5.606-.233 1.963-.198 1.963.05 0 .117-.109.325-.242.464-.133.138-.29.549-.35.912-.09.546-.14.58-.287.199zm2.141-2.304c-.183-.65-.074-1.028.215-.74.084.085.112.432.06.772l-.093.618zm1.381-.016c-.334-.624-.182-1.318.288-1.318.195 0 .239.25.124.707-.16.64-.135.673.266.34.391-.325.433-.31.348.13-.14.723-.675.797-1.026.141zm-33.662-.146c-.09-.09 1.81-2.325 4.22-4.967 7.135-7.819 7.186-7.909 5.55-9.85-.972-1.154-1.98-2.503-4.15-5.553-.801-1.125-2.382-3.294-3.515-4.82s-1.995-2.84-1.918-2.917.182-.091.232-.03c.05.06 1.32 1.776 2.82 3.814s3.93 5.228 5.398 7.091c2.517 3.193 2.693 3.359 3.073 2.89.221-.273.535-.453.697-.399.162.054.766-.651 1.343-1.567 1.626-2.583 7.215-12.51 7.215-12.817 0-.15.3-.41.665-.576.644-.293.653-.284.293.289-.205.325-1.589 2.674-3.076 5.221-1.486 2.547-2.794 4.75-2.906 4.895-.111.145-.986 1.773-1.944 3.617-1.714 3.298-1.736 3.367-1.337 4.166.62 1.243.407 2.006-.558 2.006-.777 0-.793-.027-.751-1.257.023-.69 0-1.256-.05-1.256s-2.438 2.59-5.305 5.754-5.352 5.907-5.522 6.092-.383.264-.473.174zm12.498-10.432c0-.291-.119-.53-.264-.53-.146 0-.265.05-.265.111s-.072.3-.16.53c-.106.274-.015.418.264.418.25 0 .425-.22.425-.53zm10.928 6.964-2.433-1.982.565-1.162c.669-1.377.828-1.392.413-.04-.358 1.169-.044 1.628 2.037 2.974 1.49.964 2.39 1.859 2.067 2.058-.119.073-1.31-.758-2.649-1.848zm-116.76 1.052c0-.126.67-2.13 1.488-4.453a340.948 340.948 0 0 0 2.486-7.334c1.116-3.478 1.144-3.411-1.13-2.721-1.105.335-1.256.334-1.256-.012 0-.215.179-.46.397-.544.218-.084.397-.26.397-.392 0-.275-2.383-1.372-4.197-1.933-.675-.208-2.537-.936-4.138-1.617-1.6-.681-3.241-1.372-3.645-1.535-.44-.178-.7-.459-.646-.7.108-.484.036-.499 2.836.61 7.616 3.015 10.733 4.087 11.027 3.793.077-.077-.051-.412-.284-.745-.528-.754-.544-1.281-.038-1.281.212 0 .7.536 1.083 1.19.758 1.293 1.022 1.44 1.303.728 1.24-3.146 14.69-42.685 14.69-43.187 0-.326-1.584-1.2-5.754-3.174l-7.684-3.638c-1.061-.503-2.103-.848-2.315-.767-.562.216-.47-.252.509-2.583 1.532-3.649 5.132-6.597 10.06-8.238 4.868-1.62 11.237-.941 14.974 1.598.946.642 2.136 1.341 2.646 1.553 2.798 1.164 5.03 4.663 3.825 5.996-.361.398-.392.586-.145.884.347.419-.04.846-.505.558-.391-.242-.323-.879.187-1.742.448-.759.445-.772-.436-1.682-.775-.799-.95-.873-1.373-.577-1.291.904-12.413 11.923-12.308 12.194.14.365 5.168 7.481 6.321 8.947.635.806.86.94 1.162.69.552-.458.782-.052.283.5-.401.442-.33.602 1.091 2.448 1.651 2.146 5.825 7.826 8.297 11.291.97 1.361 1.682 2.122 1.905 2.036.229-.087.409.128.505.606.19.942 7.953 11.896 13.4 18.908.57.735.706 1.281.317 1.281-.24 0-1.81-2.076-4.403-5.82-.856-1.237-3.316-4.665-5.467-7.618s-4.025-5.572-4.165-5.82c-.205-.363-.322-.387-.59-.122-.543.538-.754.381-.59-.44.135-.674-.314-1.414-3.658-6.019-2.097-2.887-4.39-6.083-5.096-7.101s-1.62-2.21-2.033-2.646c-.412-.437-1.47-1.866-2.351-3.175-2.507-3.727-5.41-7.626-5.764-7.745-.178-.059-.514.35-.749.908-.956 2.279-18.093 52.641-19.109 56.163-.396 1.373-.864 2.544-1.04 2.602-.175.059-.319.003-.319-.123zm28.172-66.646c3.424-3.288 6.224-6.079 6.224-6.203 0-.345-2.738-2.498-4.351-3.42-5.156-2.95-11.701-3.144-17.08-.505-1.822.894-2.707 1.561-4.661 3.512-1.327 1.324-2.665 2.907-2.974 3.516l-.562 1.109.78.555c.766.545 12.543 6.1 13.735 6.478.54.171.576.136.33-.324-.153-.284-.807-1.218-1.455-2.075-.737-.975-1.07-1.624-.89-1.735.314-.194.615.153 2.298 2.654 1.281 1.904 1.283 1.903 2.157-.759.632-1.926 1.296-2.908 1.296-1.918 0 .626-.833 2.957-1.452 4.064-.367.656-.306 1.03.167 1.03.118 0 3.015-2.69 6.438-5.979zm92.5 66.303c.385-.81.507-.96.507-.623 0 .142-.185.489-.411.771-.388.485-.394.476-.097-.148zm-9.282-5.19c-4.155-3.329-4.567-3.76-4.366-4.562.096-.382.298-.844.448-1.025.334-.402.83-.15.647.327-.074.193.102.405.4.483.393.103.52.336.483.886a9.33 9.33 0 0 0-.022 1.045c.016.164 1.16 1.218 2.542 2.341 2.073 1.685 2.888 2.524 2.447 2.52-.036 0-1.197-.907-2.58-2.015zm47.778-4.56c-.384-.742-2.478-5.878-2.712-6.654-.356-1.176.964 1.613 2.034 4.3 1.221 3.063 1.443 3.834.678 2.354zm-41.143-3.611c.002-.291.175-.886.385-1.323l.382-.794-.16.926c-.2 1.168-.613 1.976-.607 1.19zm1.19-3.837c.097-.363.287-.84.422-1.058.17-.276.191-.195.068.265-.097.363-.287.84-.422 1.058-.17.276-.191.195-.068-.265zm-125.78-3.39c-.403-.31-.55-.62-.435-.92.238-.621.8-.567 1.285.125.394.562.418.565.943.09.777-.704 1.005-.259.27.525-.73.776-1.231.82-2.063.18zm127.23-.418c-.038-.451 1.114-3.995 1.21-3.725.054.15-.192 1.102-.546 2.117-.355 1.014-.653 1.738-.664 1.609zm-136.15-1.664c-3.638-1.486-10.442-4.053-10.742-4.053-.124 0-.154.358-.066.794.089.444.046.794-.097.794-.387 0-2.442-2.094-2.202-2.243.116-.072.409-.549.652-1.06.457-.964 1.043-1.145 2.464-.764.854.229.426.69-.46.495-.409-.09-.814-.05-.9.09-.158.256 4.175 2.252 10.894 5.017 2.382.98 3.663 1.64 3.548 1.827-.122.196-1.134-.098-3.091-.897zm10.29.332c-.221-.576-.011-1.552.36-1.674.21-.07.33.153.33.607 0 .586.068.66.374.406.235-.195.432-.214.533-.05.089.142-.106.446-.432.674-.733.513-.98.521-1.165.037zm1.742-2.682c-.415-1.092-.32-1.703.262-1.703.286 0 .647-.238.803-.529.317-.591 1.323-.725 1.323-.176 0 .194-.354.7-.786 1.124s-.79 1.04-.794 1.367c-.01.804-.49.755-.808-.083zm158.11-.804a.953.953 0 0 1-.248-.993c.22-.703.585-.955 1.395-.96.512-.003.57-.073.316-.38-.246-.296-.211-.431.166-.642.432-.242.407-.295-.256-.547-.955-.363-1.218-1.05-.581-1.516.27-.197.643-.359.83-.359.48 0 1.075 1.013 1.292 2.2.16.88.114 1.026-.365 1.152-.438.114-.52.29-.405.866.261 1.307-1.208 2.115-2.144 1.179zm1.71-.634c0-.146-.298-.265-.661-.265-.364 0-.662.12-.662.265s.298.265.662.265c.363 0 .661-.12.661-.265zm11.818.882c-.097-.097-.176-.356-.176-.575 0-.219-.197-.615-.438-.882-.413-.456-.401-.483.198-.48.35.003.815.124 1.034.27.348.233.343.297-.042.525-.27.16-.385.462-.3.788.141.54.04.67-.276.354zm3.065-.147a1.014 1.014 0 0 1-.595-.916c0-.409-.21-.71-.596-.86-.531-.204-.545-.25-.129-.417.56-.226 1.29.309 1.233.903-.077.815.024.916.41.407.382-.505.388-.505.396.029.005.298.151.685.326.86.41.41-.19.407-1.045-.005zm-48.862-.735c.097-.364.287-.84.422-1.058.17-.276.191-.195.068.264-.097.364-.287.84-.422 1.059-.17.275-.191.195-.068-.265zm1.213-3.704c0-.219.227-.992.505-1.72.416-1.087.477-1.158.345-.397-.184 1.06-.848 2.714-.85 2.117zm-32.85-.508c0-.276 2.408-2.8 5.7-5.976 3.134-3.024 5.823-5.729 5.974-6.01.217-.408.124-.742-.45-1.617-.666-1.014-10.885-14.358-12.394-16.184-2.98-3.607-12.278-15.724-12.688-16.536-.413-.816 1.583 1.62 5.65 6.896 2.306 2.993 4.435 5.731 4.73 6.086.297.354.932 1.109 1.413 1.676.481.568 1.53 1.905 2.33 2.97 4.78 6.364 11.503 14.907 11.828 15.032.72.277 1.3-.35 2.729-2.942 3.169-5.754 7.187-12.675 7.576-13.05.45-.433.043.336-4.143 7.806-4.179 7.46-4.76 8.531-4.764 8.774-.002.122 1.278 1.458 2.845 2.97 2.868 2.767 2.73 2.76-.602-.036-.998-.837-1.918-1.522-2.045-1.522-.31 0 .619 1.269 1.633 2.233.843.8 1.07 1.48.487 1.46-.182-.006-.898-.84-1.592-1.852-.693-1.012-1.375-1.84-1.515-1.84-.295 0-.48.29-2.428 3.836-.8 1.455-1.538 2.982-1.64 3.392-.21.842-.861.821-.77-.025.033-.299.584-1.298 1.224-2.22 1.337-1.923 2.392-3.911 2.186-4.117-.194-.194-3.212 2.74-7.601 7.387-2.284 2.418-3.673 3.707-3.673 3.41zm22.754-4.01-2.778-2.658 2.959 2.331c2.584 2.036 3.488 3.003 2.796 2.989-.11-.002-1.449-1.2-2.977-2.662zm30.074 2.225a.729.729 0 0 1-.176-.45c0-.166.123-.15.313.04.172.172.252.374.176.45-.075.075-.216.057-.313-.04zm-54.014-1.217c-.109-.547-.392-1.104-.628-1.237-.573-.32-.296-.563.427-.374.713.187.917.78.624 1.813l-.225.794zm58.367-1.072c-.429-1.079-.343-1.498.128-.628.222.409.35.885.286 1.058-.065.174-.25-.02-.414-.43zm-1.17-.02c-.108-.276-.134-.563-.058-.64.241-.24.453.155.352.657-.092.46-.106.46-.294-.017zm-54.654-1.307c-.31-.703-.564-1.329-.564-1.39s.477-.11 1.06-.11c.934 0 1.03.056.799.463-.145.255-.368.88-.497 1.39l-.234.926zm23.182.53c-.109-.267-.198-.714-.198-.993s-.12-.507-.265-.507-.264-.12-.264-.265.371-.265.826-.265c.632 0 .761.078.55.332-.151.183-.314.748-.363 1.257-.067.71-.134.812-.286.44zm10.12-.395c0-.365.847-2.728.944-2.631.115.115-.682 2.849-.831 2.849-.062 0-.113-.098-.113-.218zm-7.427-.95c.283-.342.296-.579.058-1.102-.167-.366-.304-.78-.304-.918 0-.335.982-.325 1.19.013.09.145.054.264-.08.264s-.23.443-.214.984c.024.779-.078 1.005-.49 1.088-.456.093-.476.052-.16-.33zm9.035-4.014c.013-.308.076-.37.16-.16.077.191.067.42-.02.507s-.151-.068-.14-.347zm.509-1.493c0-.368 1.106-3.684 1.198-3.592.111.11-.87 3.412-1.075 3.617-.068.068-.123.056-.123-.025zm-136-1.838c0-.17.19-.52.423-.777s.35-.584.262-.727c-.171-.276-10.714-4.536-11.228-4.536-.462 0-.367.392.224.926.507.46.743 1.48.33 1.433-.108-.012-.592-.48-1.073-1.041-.836-.974-.862-1.066-.566-2.053.297-.993.355-1.034 1.47-1.051.832-.013 1.162.088 1.162.355 0 .205-.189.373-.42.373-1.007 0-.023.735 2.167 1.618 3.268 1.318 8.301 3.17 9.1 3.347.599.133.626.104.29-.303-.272-.329-.294-.53-.08-.743.366-.367 2.124 1.016 2.153 1.694.024.579-.76 1-1.882 1.01-.482.005-1.108.183-1.39.397-.62.469-.942.496-.942.079zm137.7-3.511c.275-1.146.93-2.631 1.09-2.471.139.138-.851 2.867-1.13 3.117-.081.073-.063-.218.04-.646zm-26.254-1.259c-.457-.457-.396-1.785.09-1.972.556-.213.671-.046.84 1.21.152 1.131-.24 1.453-.93.762zm-116.41-1.772c-.494-1.385-.43-1.413 1.267-.556 1.72.869 2.209 1.59.629.93-1.218-.509-1.363-.503-1.48.062-.066.32-.194.186-.416-.436zm118.61-.804c-.09-.282-.425-.55-.746-.595-.478-.068-.566-.226-.49-.877.113-.98.481-1.455 1.13-1.455.622 0 .634.238.034.679-.431.317-.412.393.273 1.11.473.495.676.928.567 1.21-.226.59-.569.557-.768-.072zm-116.41-1.663c-.627-.894-.506-1.544.129-.694.388.52.678.662 1.116.55.527-.137.552-.105.229.29-.495.603-.983.555-1.474-.146zm32.142-.061a.866.866 0 0 1-.131-.869c.192-.443.208-.443.313-.003.173.722.601.543.601-.252 0-.553.071-.643.317-.398.22.221.24.53.066 1.024-.304.859-.72 1.036-1.166.498zm-30.947-2.165c-.693-.88-.688-.977.113-2.156.364-.535.661-1.124.661-1.309 0-.558.397-.38 1.017.458.468.634.505.794.182.794-.274 0-.405.258-.405.794 0 .436-.119.794-.265.794s-.264.297-.264.661c0 .852-.35.84-1.04-.036zm31.33-.894c-.09-.148-.276-.2-.412-.117-.394.244-.284-.312.13-.656.437-.362 1.476.136 1.476.708 0 .398-.956.45-1.193.065zm104.67-.443c-.01-.32-.14-.654-.285-.744-.592-.366-.199-.66.86-.643.992.016 1.056.051.54.3-.322.156-.7.594-.84.975-.23.63-.255.64-.274.112zm3.68-.28a5.183 5.183 0 0 0-.163-1.059c-.125-.466-.049-.595.348-.595.874 0 1.124.484.695 1.345-.43.86-.874 1.017-.88.308zm.798-1.125c0-.146-.053-.265-.117-.265s-.19.12-.28.265c-.09.145-.037.265.117.265s.28-.12.28-.265zm-2.113.728c.002-.182.12-.51.26-.728.2-.31.258-.236.261.33.002.4-.115.728-.26.728-.146 0-.263-.149-.26-.33zm6.83-.483c-.412-.436-.408-.496.067-.926.295-.267.507-.331.507-.154 0 .168.179.306.397.306.53 0 .502.357-.066.843-.414.355-.51.347-.904-.07zm-3.71-.914c-.25-.25-5-1.436-5.777-1.442-.368-.003-.904-.166-1.19-.362-.453-.309-2.874-.712-8.27-1.376-.94-.116-1.523-.066-1.785.151-1.028.853.053-1.274 5.21-10.255 2.024-3.526 3.945-6.98 4.266-7.673s.803-1.5 1.07-1.79c.545-.596 9.201-15.822 10.793-18.984.567-1.127 1.153-2.05 1.301-2.05.64 0 .49.826-.347 1.922-1.785 2.34-11.38 18.91-11.158 19.27.071.115.692.283 1.38.373 1.912.252 9.845 2.173 12.019 2.911 1.062.36 2.176.657 2.474.658.546.002 1.177.456 1.177.848 0 .409-1.002.203-3.993-.821-3.154-1.08-4.738-1.494-4.738-1.24 0 .082.445.335.989.562 1.826.763 3.398 2.714 4.175 5.184l.469 1.49-1.532 2.015-.076-.91c-.169-2-.608-3.803-1.048-4.3-.255-.287-.935-.868-1.512-1.29l-1.048-.767-.49.608c-.472.582-.48.583-.21.029.468-.958.33-1.263-.717-1.59-2.413-.753-3.531-.719-5.402.165-3.429 1.62-4.992 3.826-5.184 7.314-.141 2.58.042 3 2.372 5.428 1.424 1.483 4.116 3.405 4.782 3.413.11.002.199-1.433.199-3.188s.098-3.13.218-3.056c.12.074.164 1.151.099 2.393-.153 2.918.245 3.692 1.822 3.542 1.053-.1 1.212.073.875.952-.088.23-.438.418-.778.418-.867 0-1.067.476-.242.578.605.075.641.136.328.562-.194.262-.429.401-.522.308zm-2.595-1.977a.265.265 0 0 0-.264-.264c-.146 0-.265.119-.265.264s.12.265.265.265c.145 0 .264-.12.264-.265zm-3.969-.672c0-.08-.12-.288-.266-.464-2.438-2.918-3.438-5.35-3.438-8.368 0-1.516.135-2.077.81-3.367 1.435-2.742 3.846-4.83 6.25-5.413 1.49-.36 2.08-.766 1.116-.766-.364 0-.775-.11-.913-.246s-.977-.328-1.863-.427l-1.612-.18-2.558 4.446c-1.722 2.993-2.47 4.533-2.29 4.713.451.452.314 1.005-.21.84-.373-.12-.742.29-1.72 1.906-.683 1.131-1.243 2.203-1.243 2.382 0 .179-.1.325-.221.325-.344 0-1.702 2.847-1.508 3.16.095.154.672.286 1.282.295.61.008 2.656.296 4.548.638 4.074.738 3.836.705 3.836.526zm15.556 2.005c-.08-.547.008-.9.26-1.04.316-.177.298-.246-.102-.4-.39-.15-.414-.23-.12-.412 1.035-.639 1.42.652.578 1.93l-.494.75zm-2.053.32c-.005-.181-.299-.33-.654-.33-.976 0-1.093-.512-.16-.699.45-.09.88-.267.96-.393.247-.402.64-.25.64.248 0 .539-.773 1.694-.786 1.175zm-133.82-4.107c-.179-.396-.536-.726-.794-.731-.27-.006-.09-.175.422-.397 1.113-.484 1.52-.503 1.15-.056-.15.182-.314.685-.363 1.118l-.09.788zm2.177-.456c.12-.376.048-.53-.246-.53-.526 0-.564-1.209-.044-1.408.204-.078.442-.071.529.016.28.279.17 2.45-.124 2.45-.162 0-.211-.225-.115-.528zm146.98-2.693c-.946-.886-3.432-3.085-5.524-4.887-3.112-2.68-3.874-3.219-4.185-2.96-.322.267-.367.137-.296-.857l.083-1.171 2.376-.169-.587.625-.587.625 2.31 2.26c1.27 1.244 3.56 3.37 5.087 4.723 3.902 3.458 3.892 3.447 3.433 3.434-.215-.007-1.164-.737-2.11-1.623zm3.528 1.171c-.496-1.439-1.206-2.829-1.586-3.107-.397-.29-.385-.367.135-.887.73-.731 1.097-.723 1.101.026.003.544.43 2.362.901 3.836.226.709-.308.837-.55.132zm3.085-.947c.437-.776.793-1.58.79-1.786-.003-.206-.39-.565-.86-.796-.707-.349-.854-.573-.854-1.301 0-.484.149-.93.33-.99.195-.065.331.117.331.44 0 .304.12.552.265.552.145 0 .264-.134.264-.297 0-.205.123-.195.397.032.219.181.401.702.407 1.157l.01.828.65-.794c.89-1.085.824-.609-.103.746-.99 1.448-1.677 2.801-1.575 3.102.088.256 2.086-1.358 7.934-6.404 2.093-1.807 3.664-2.986 3.728-2.797.062.18-.792 1.013-1.897 1.853s-3.676 2.952-5.714 4.692c-2.332 1.993-3.925 3.166-4.301 3.169-.596.004-.595-.001.198-1.406zm-156.41-.09c.113-.555.179-.621.256-.257.057.27-.011.606-.152.747-.166.166-.203-.008-.104-.49zm154.61-.232c-.417-.915-.386-1.356.109-1.546 1.046-.401 1.926 1.095 1.118 1.903-.494.494-.893.378-1.227-.357zm-124.46-.272c-.11-.11-.199-.716-.199-1.347 0-1.075.045-1.146.728-1.142.534.003.627.067.351.242-.207.13-.445.735-.529 1.342-.084.608-.242 1.015-.351.905zm95.06-1.947c-.306-.573-.352-1.356-.115-1.973.142-.37.2-.37.58.01.386.387.462.372.9-.168.275-.34.478-1.021.478-1.604 0-1.074.366-1.588.634-.89.221.577.2 1.37-.038 1.477-.11.048-.425.743-.7 1.543-.752 2.175-1.208 2.596-1.738 1.605zm3.503-3.868c-.318-.666-.371-1.062-.184-1.359.388-.616.756-.536.906.198.072.355.309.646.525.646.514 0 .688.93.228 1.221-.657.416-1.023.24-1.475-.706zM140.47 61.64c-.002-.255-2.585-3.737-5.739-7.74-3.154-4.001-9.538-12.276-14.187-18.388-9.11-11.978-11.066-14.417-11.86-14.796-.611-.291-.562-1.299.07-1.42.27-.05.554.23.778.772.584 1.41 13.948 19.092 22.87 30.261 2.209 2.765 5.06 6.397 6.335 8.07s2.486 3.081 2.69 3.128c.627.145.41.576-.291.576-.452 0-.663-.146-.665-.463zm70.552-1.69c.562-1.065 1.15-2.059 1.308-2.207.279-.263 2.514-4.034 9.08-15.314 1.766-3.036 3.32-5.997 3.45-6.58.321-1.43.731-1.814 1.224-1.146.209.283.38.797.38 1.144s1.144 3.449 2.542 6.894c3.176 7.826 3.11 7.65 2.782 7.324-.145-.146-.737-1.456-1.315-2.91-2.319-5.837-4.51-10.717-4.812-10.717-.37 0-12.163 20.097-12.163 20.728 0 .13.238.173.53.097.594-.155.716.202.178.527-.193.116-.437.446-.543.733-.163.44-.234.46-.45.132-.212-.322-.37-.252-.917.405-.364.436-.73 1.055-.813 1.375-.083.32-.451.777-.817 1.017-.63.413-.61.33.356-1.502zm28.773 1.425c-.08-.254-.26-.746-.398-1.092-.317-.788-.21-.896.668-.676.534.134.633.257.417.517-.156.187-.205.65-.11 1.028.195.778-.338.985-.577.223zm-33.969-1.3c0-.282-.143-.655-.317-.83-.247-.247-.13-.317.529-.317.992 0 1.021.09.317.986-.468.595-.529.613-.529.16zm39.555-.883c-.09-.145-.398-.264-.685-.264-.646 0-.907-.603-.536-1.24.244-.42.28-.386.287.263.008.714.03.726.596.33.833-.583 1-.52 1 .382 0 .78-.34 1.05-.662.53zm-35.539-.34c-.405-.487-.115-1.3.427-1.194.562.11.657.54.243 1.106-.303.414-.39.425-.67.089zm-1.54-.932c.018-.703.15-1.109.363-1.109.447 0 .428 1.095-.029 1.72-.33.45-.361.393-.335-.61zm34.565.198c0-.472.11-.74.265-.645.145.09.264.454.264.809s-.119.646-.264.646-.265-.364-.265-.81zm-43.638-.02c-.012-.476-.193-.742-.573-.841-.844-.221-.316-.754.603-.61.923.146 1.239.38.863.642-.145.1-.401.481-.57.845l-.305.661-.018-.696zm4.527-.577c-.383-.916-.393-1.239-.039-1.239.375 0 .585.63.457 1.37-.103.6-.113.596-.418-.13zm-2.145-.231c-.01-.392.1-.786.246-.876.316-.195.316.324 0 1.059-.203.472-.23.452-.246-.183zm13.66-.847c-.108-.276-.134-.564-.058-.64.241-.241.453.154.352.657-.092.46-.106.46-.294-.018zm1.46.054c-.394-.393-.424-1.708-.045-1.942.492-.304 1.077.453.994 1.287-.089.885-.462 1.142-.95.655zm.472-.48c0-.145-.126-.264-.28-.264s-.206.119-.117.264c.09.146.216.265.28.265.065 0 .117-.12.117-.265zm16.712-.672c-.443-.973-.358-1.18.12-.296.225.413.358.8.298.86-.06.061-.249-.193-.418-.564zM75.324 36.29c-1.564-.795-2.844-1.496-2.844-1.558 0-.063 1.263.49 2.807 1.227 2.216 1.059 2.854 1.266 3.029.984.177-.286.256-.267.396.098.241.629.647.572.647-.091 0-.3.115-.76.255-1.022.175-.328.146-.623-.093-.95-.395-.54-.869-.352-1.245.495-.207.468-.224.428-.095-.226.221-1.115.515-1.336 1.303-.977.71.323.863 1.046.404 1.905-.18.336-.176.55.013.667.462.286-.264.92-1.037.905-.383-.007-1.975-.663-3.54-1.457zm6.85-1.241c.453-.748 2.005-2.845 2.106-2.845.06 0-.338.715-.884 1.588s-1.09 1.587-1.207 1.587c-.118 0-.125-.148-.015-.33zm-16.706-3.63c-1.164-.562-1.965-1.031-1.78-1.044.372-.025 4.03 1.759 4.03 1.965 0 .172.144.231-2.25-.922zm15.637.627c-.094-.246-.112-.506-.039-.579s.21.069.304.314.111.506.039.579-.21-.069-.304-.314zM62.3 28.105c.103-.292 1.002-3.273 1.997-6.626 1.74-5.863 2.31-7.613 2.346-7.209.01.104-.816 3.003-1.834 6.443-1.018 3.44-1.802 6.334-1.74 6.433.06.099-.13.474-.423.834-.433.532-.498.555-.346.124zm-6.448-.927c-.215-.615-.443-.8-1.018-.82l-.742-.026.662-.212a6.056 6.056 0 0 1 1.336-.238c.619-.024.665.05.566.902-.143 1.221-.462 1.377-.804.394zm32.69-1.18c.553-.795 1.097-1.45 1.211-1.455.114-.006-.287.644-.892 1.445-1.415 1.875-1.617 1.88-.318.01zm-29.643-.054c-.097-.097-.177-.586-.177-1.087 0-.7-.091-.875-.397-.758-.507.195-.514-.198-.011-.615.519-.43.84-.184 1.207.93.407 1.235.024 2.176-.622 1.53zm32.354-3.016c-.502-.634-.76-1.058-.571-.942.192.118.512.07.728-.109.319-.265.385-.21.385.321 0 .353.132.774.294.936s.246.441.186.62c-.062.185-.507-.175-1.022-.826zm-5.28-4.018c-.39-.532-.453-.717-.167-.485.433.353 1.09 1.345.889 1.345-.05 0-.376-.387-.722-.86zm6.724.2c-.2-.803.017-1.457.486-1.457.244 0 .316.312.245 1.059-.114 1.192-.48 1.392-.73.397zm-8.969-2.944c-.25-.382-.324-.614-.164-.515.305.189.921 1.209.73 1.209-.061 0-.316-.313-.566-.694zm12.023-.123c-.162-.303-.229-.618-.148-.7.081-.08.223.05.315.288.196.512.808.578.978.104.064-.182.208-.246.319-.144.347.323-.088 1.004-.64 1.004-.291 0-.662-.248-.824-.552zm-15.069-4.21c-.156-.291-.224-.53-.15-.53s.259.239.415.53c.155.29.223.529.15.529s-.26-.238-.415-.53zM69.606 4.424c0-.218.102-.635.227-.926.144-.333.228-.382.228-.132 0 .218-.103.635-.228.926-.143.334-.227.382-.227.132zm.757-2.91c0-.146.126-.265.28-.265s.206.12.116.265c-.09.145-.216.264-.28.264s-.116-.119-.116-.264zM72.209.58c-.184-.221-.283-.454-.22-.517.062-.062.259.12.436.404.385.615.256.682-.216.113z" stroke="#000" stroke-miterlimit="10" stroke-linecap="round" stroke-linejoin="round"/>
  <path class="g" d="M196.55 60.103c6.82 4.073 8.241 9.4 8.241 9.4s.54 7.458-4.248 9.63c-4.789 2.172-12.18-.546-12.18-.546m-21.498 193.14c-5.574-.238-14.393-1.509-20.698-2.984-2.71-.634-9.947-2.922-9.777-3.091.063-.064 1.529.3 3.257.808 10.012 2.943 21.175 4.866 28.722 4.946a74.42 74.42 0 0 1 4.714.224c2.213.194 2.196.197-1.058.186-1.82-.006-4.141-.046-5.16-.09zm12.04-.345c5.425-.502 8.212-.856 11.641-1.48 7.11-1.292 17.963-4.616 24.011-7.353 3.165-1.432 3.77-1.63 3.77-1.232 0 .289-.335.606-.86.812-.472.187-1.454.612-2.182.945s-4.034 1.561-7.347 2.73c-5.086 1.793-7.021 2.328-12.435 3.434-8.144 1.665-11.1 2.093-15.54 2.25-3.332.118-3.403.111-1.058-.106zm-48.817-8.176c-5.16-2.186-6.619-2.92-11.223-5.653-8.77-5.207-15.112-10.06-22.956-17.57-5.513-5.28-11.51-12.998-16.753-21.56-2.414-3.944-6.36-12.503-8.211-17.818-.457-1.31-1.058-2.775-1.337-3.257-.278-.48-.506-1.084-.506-1.34 0-.255-.484-2.66-1.075-5.342-2.51-11.39-3.005-15.664-3.017-26.044-.012-9.907.899-18.344 2.799-25.93 2.213-8.832 6.89-20.595 10.956-27.557 1.935-3.314 6.265-9.915 7.522-11.468.53-.655 2.38-2.917 4.111-5.027s3.177-3.878 3.212-3.93c.034-.05.191-.013.349.085.173.107-.327.871-1.275 1.944-4.173 4.728-9.786 12.421-12.457 17.074-7.928 13.813-12.593 27.978-14.172 43.034-1.922 18.326.612 35.811 7.727 53.314 2.883 7.092 9.163 17.911 13.591 23.416 9.506 11.817 19.316 20.463 30.948 27.276 3.868 2.266 6.965 3.822 12.416 6.238 2.103.932 3.88 1.75 3.947 1.818.33.329-.705-.054-4.596-1.702zm89.707-2.66c-.434-.479-.42-.523.296-.962 3.138-1.924 4.739-3.456 6.579-6.294 2.006-3.094 2.786-5.375 2.968-8.687.13-2.37.189-2.592.673-2.592.5 0 .521.122.368 2.183-.26 3.508-1.726 8.016-3.398 10.445-.427.622-1.425 1.545-2.216 2.051-.792.506-1.848 1.489-2.348 2.183-.5.694-1.26 1.468-1.688 1.72-.745.436-.799.434-1.234-.046zm-54.65-8.514c-3.457-.35-11.406-1.744-15.037-2.636-4.36-1.07-9.849-3.058-14.938-5.408-3.769-1.74-7.772-3.907-8.128-4.398-.075-.103-.817-.545-1.648-.982-4.457-2.345-13.605-9.946-17.482-14.525-3.466-4.096-7.897-9.693-9.235-11.667-1.991-2.938-7.647-13.942-9.254-18.005-1.213-3.069-2.959-9.459-3.52-12.887-1.478-9.034-1.932-20.807-1.058-27.486.473-3.621 1.847-10.533 2.381-11.988.538-1.462.468-.753-.23 2.335-.564 2.496-1.02 5.448-1.756 11.372-.666 5.355-.527 12.236.413 20.505.458 4.029 1.96 10.746 3.076 13.758a359.115 359.115 0 0 1 1.827 5.1c1.599 4.577 3.121 7.836 5.67 12.136 2.8 4.725 4.917 7.924 7.24 10.943 2.7 3.508 9.542 10.308 13.79 13.704 2.11 1.686 4.406 3.53 5.103 4.098 2.288 1.864 10.468 6.334 15.095 8.25 8.241 3.41 16.934 5.682 25.948 6.778 2.981.363 14.116.197 19.338-.288 3.338-.31 9.054-1.345 10.848-1.965.582-.201 2.19-.63 3.572-.953 3.651-.853 4.315-1.162 4.09-1.904-.147-.49-.117-.54.166-.27.474.451.787.417.602-.066-.2-.522.398-.51.984.02.426.385.588.266 2.227-1.654 2.931-3.433 5.02-8.678 3.742-9.394-.597-.334-.545-.745.095-.745.498 0 .53-.176.528-2.977-.002-3.03-.396-11.95-.661-14.95l-.146-1.653h1.47l-.086 3.109c-.047 1.71.043 5.907.199 9.327.197 4.31.2 6.246.008 6.31-.186.061-.19.196-.01.413.148.176.325 1.504.395 2.95.07 1.447.063 2.332-.014 1.968-.238-1.12-.553-1.152-.897-.09-.405 1.25-1.73 3.934-2.432 4.929-.478.677-.662 1.173-.715 1.932-.011.159-.318.424-.681.59-.364.165-1.2.798-1.86 1.405-1.115 1.028-1.244 1.08-1.852.756-.578-.31-1.026-.235-3.89.651-1.78.55-3.536 1.032-3.903 1.069-.367.037-1.72.383-3.005.769-5.077 1.521-19.207 2.44-26.37 1.714zm63.558-16.172c-.037-3.547-.453-14.731-.734-19.711-.144-2.557-.123-2.712.359-2.712.487 0 .52.32.69 6.945.2 7.78.608 16.488.843 17.992.142.915.105.992-.483.992h-.638zm-20.012-24.606c-.066-.328-.18-1.215-.255-1.972-.165-1.678-1.495-5.084-2.54-6.505-.987-1.343-4.751-5.216-5.069-5.216-.133 0-.935-.35-1.782-.777-1.9-.959-4.498-1.792-6.25-2.005a32.074 32.074 0 0 1-1.985-.297c-.364-.075-1.544-.248-2.623-.384-2.686-.338-4.026-1.064-6.537-3.543-1.758-1.737-2.199-2.338-2.427-3.312a23.916 23.916 0 0 0-.722-2.382c-.99-2.656.233-7.526 2.549-10.157 1.12-1.272 3.467-2.819 4.998-3.293.58-.18 5.18-.326 12.303-.393 10.682-.1 13.46.002 11.75.431-.365.092-4.766.233-9.78.315-8.095.131-9.224.202-10.093.63-.842.414-1 .427-1.13.092-.228-.596-2.369-.286-4.185.607-2.02.992-3.965 2.978-5.021 5.127-.793 1.614-.856 1.937-.853 4.39.003 2.405.078 2.807.818 4.368 1.382 2.92 3.19 4.57 6.104 5.572 2.096.721 2.16.7 2.273-.743l.1-1.257.095 2.716 2.07-.065c1.139-.036 2.506-.21 3.038-.385.532-.176 1.238-.275 1.568-.22.54.09.509.142-.326.527-.92.424-.91.427 1.962.448 3.08.023 3.562.332.86.551l-1.632.132 1.819.862c4.51 2.136 7.985 5.305 9.942 9.067.607 1.166 1.153 2.378 1.214 2.691.06.314.254.66.43.77.178.108.337.712.356 1.341.018.63.124 1.531.235 2.004.187.799.153.86-.476.86-.49 0-.71-.164-.798-.595zm19.226-.503c-.206-.206-.33-1.082-.329-2.328.001-1.913.04-2.04.924-3.003.508-.553.993-1.327 1.08-1.72.327-1.5.637-2.194 1.65-3.685 1.47-2.165 2.92-3.512 3.782-3.512.654 0 .567.14-1.196 1.918-2.754 2.778-4.532 6.419-5.263 10.773-.254 1.51-.383 1.822-.648 1.557zm8.004-15.475c.291-.229.94-.594 1.444-.812.503-.217 1.713-.847 2.69-1.4 2.155-1.222 5.96-2.381 7.81-2.381.966 0 1.405-.116 1.513-.397.084-.218.305-.397.492-.396.46 0 2.588-1.141 2.588-1.39 0-.109-.268-.209-.596-.221-.568-.022-.565-.032.066-.226 1.073-.33 2.413-1.243 2.802-1.91 1.393-2.39 1.558-2.973 1.561-5.515.003-2.994-.504-4.244-2.681-6.604-1.611-1.747-3.259-2.639-5.255-2.845-1.395-.144-1.454-.124-1.472.483l-.018.632-.287-.595c-.27-.56-.448-.596-2.983-.596-2.361 0-2.757.066-3.176.53-.27.298-.815.529-1.25.529-.64 0-.743-.086-.608-.51.158-.5-.105-.507-13.807-.376-9.898.094-13.853.051-13.572-.148.242-.171 2.158-.283 4.917-.285 2.487-.002 8.827-.083 14.09-.18l9.568-.175.018-.684c.017-.665.025-.669.293-.115.265.547.471.574 4.943.662 4.576.09 4.698.107 6.24.885 2.012 1.015 3.781 2.789 4.738 4.75.62 1.267.78 2 .889 4.086.114 2.166.05 2.761-.433 4.035-.73 1.925-2.478 4.628-3.126 4.834-.845.268-1.654 1.176-1.471 1.65.139.363.044.405-.569.251-1.15-.289-3.426.311-4.69 1.237-.814.596-1.766.965-3.299 1.28-1.185.243-3.155.872-4.377 1.397-1.221.524-2.514.95-2.872.945-.64-.008-.641-.015-.12-.425zm-148.03-55.405c0-.71 2.346-7.384 3.763-10.704 2.039-4.776 3.998-8.34 7.942-14.439 1.544-2.388 5.076-6.93 5.505-7.08.568-.199.185.613-.896 1.898-2.09 2.485-5.178 6.697-6.164 8.41-3.384 5.88-7.222 13.707-7.247 14.783-.005.219-.19.635-.41.926s-.817 1.869-1.328 3.506c-.848 2.716-1.165 3.45-1.165 2.7zm19.217-34.329c-.15-.241 6.178-6.816 7.565-7.86.386-.292 1.478-1.224 2.425-2.072 1.25-1.118 1.832-1.48 2.121-1.319.515.288.334.518-1.462 1.853-1.657 1.232-6.928 5.99-9.093 8.207-.772.79-1.472 1.327-1.556 1.191zm-11.38-16.41c-.39-.63 12.245-11.69 13.353-11.69.539 0 .13.455-1.418 1.584-2.525 1.84-6.419 5.166-9.23 7.883-1.404 1.358-2.622 2.358-2.706 2.222zm42.7-5.863c0-.438 1.275-.946 6.217-2.477 6.428-1.992 9.657-2.763 9.657-2.305 0 .132-.685.375-1.521.541-2.85.565-6.347 1.556-8.699 2.466-1.291.5-2.792 1.05-3.336 1.225-.544.174-1.057.427-1.14.562-.202.326-1.179.316-1.179-.012zm-28.61-5.233c-.329-.42-.32-.429.1-.1.44.346.58.563.363.563-.055 0-.263-.208-.463-.463zm45.598.16c.176-.532 6.56-1.458 12.644-1.833 6.026-.372 11.377-.16 11.377.452 0 .308-.262.34-1.389.172-4.44-.663-18.229.216-22.256 1.42-.339.101-.457.035-.376-.21zm-44.922-1.58c-.091-.148-.124-.292-.073-.321.05-.03.628-.42 1.283-.87 1.623-1.115 2.381-1.493 2.381-1.189 0 .417-3.408 2.676-3.59 2.38zm15.561-9.295c.11-.338 4.526-2.237 9.99-4.296 1.674-.63 3.367-1.272 3.762-1.425s.782-.175.86-.049c.078.127-1.019.61-2.438 1.076-3.179 1.041-7.614 2.836-10.095 4.085-2.06 1.038-2.235 1.09-2.079.609zm16.076-6.187c0-.126 1.578-.634 3.506-1.128s3.684-.959 3.902-1.031c.27-.09.313-.044.132.145-.145.153-1.693.661-3.44 1.13-1.745.467-3.383.91-3.637.982-.255.072-.463.028-.463-.098zm51.751-1.908c-.092-.148-.037-.349.12-.446.407-.252.67.093.33.432-.19.19-.338.195-.45.014zm-43.144-.288c.314-.314 7.387-1.475 11.672-1.916 1.761-.18 6.848-.323 11.603-.325 7.537-.001 8.838.062 11.846.582 1.859.32 3.436.583 3.506.583s.126.095.126.21c0 .117-.982.065-2.182-.114-8.967-1.338-24.537-1.026-33.668.674-2.859.533-3.16.565-2.902.306zM66.99 31.403c-.51-.279-.83-.512-.714-.518.28-.015 1.772.761 1.772.922 0 .173-.015.167-1.058-.404z" stroke="#000" stroke-width="2" stroke-miterlimit="10" stroke-linecap="round" stroke-linejoin="round"/>
</svg>
